<svg shape-rendering="geometricPrecision" viewBox="0 0 1254 1254" version="1.1" xmlns="http://www.w3.org/2000/svg" desc="Created with imagetracer.js version 1.2.6" ><path fill="#ffffff" stroke="rgb(255,255,255)" stroke-width="0" opacity="1" d="M 0 0 L 1254 0 L 1254 1254 L 0 1254 L 0 0 Z M 269 242 L 267 244 L 267 250 Q 270 249 272 251 L 281 251 L 282 252 L 287 252 L 288 253 L 296 254 L 299 256 L 304 257 L 313 261 L 326 270 L 335 280 L 347 297 L 373 349 L 375 355 L 377 357 L 377 359 L 388 380 L 388 382 L 390 384 L 390 386 L 408 421 L 408 423 L 418 442 L 418 444 L 424 454 L 424 456 L 432 471 L 432 473 L 441 490 L 441 492 L 486 583 L 486 585 L 498 608 L 498 610 L 510 633 L 510 635 L 522 658 L 522 660 L 532 679 L 532 681 L 542 700 L 542 702 L 548 713 L 548 715 L 562 743 L 562 745 L 569 759 L 569 761 L 576 776 L 577 781 L 579 784 L 587 808 L 587 811 L 589 815 L 590 822 L 591 823 L 591 827 L 593 832 L 593 836 L 594 837 L 594 841 L 595 842 L 596 856 L 597 857 L 597 865 L 598 866 L 598 881 L 599 882 L 599 899 L 598 900 L 598 914 L 597 915 L 597 921 L 596 922 L 596 925 L 594 931 L 590 938 L 585 943 L 574 949 L 568 951 L 564 951 L 563 952 L 548 953 L 546 955 L 546 964 L 724 964 L 724 964 L 724 955 L 723 953 L 715 953 L 714 952 L 708 952 L 703 950 L 700 950 L 686 943 Q 679 938 675 930 L 673 924 L 673 920 L 672 919 L 672 913 L 671 912 L 671 871 L 672 870 L 672 861 L 673 860 L 673 853 Q 675 851 674 847 L 675 846 L 675 841 L 676 840 L 676 836 L 678 831 L 678 827 L 680 822 L 680 819 L 685 805 L 685 802 L 689 790 L 691 787 L 692 782 L 699 767 L 699 765 L 713 736 L 713 734 L 722 717 L 722 715 L 763 632 L 763 630 L 831 493 L 831 491 L 851 452 L 851 450 L 875 403 L 875 401 L 878 397 L 878 395 L 880 393 L 880 391 L 882 389 L 882 387 L 914 324 L 914 322 L 927 297 L 938 281 Q 950 266 968 258 L 983 253 L 992 252 L 993 251 L 1001 251 Q 1002 249 1005 250 L 1005 243 L 1005 242 L 779 242 L 777 244 L 777 250 L 783 250 L 784 251 L 794 251 L 795 252 L 799 252 L 804 254 L 807 254 L 821 261 L 828 270 L 832 280 L 832 298 Q 830 298 831 303 L 830 304 L 830 307 L 827 316 L 822 326 L 822 328 L 756 460 L 754 462 L 714 541 L 712 543 L 702 564 L 700 566 L 691 585 L 689 587 L 681 604 L 679 606 L 656 652 L 650 662 L 651 663 L 715 590 L 760 536 L 821 466 L 827 460 L 827 461 L 820 474 L 791 519 L 751 575 L 683 664 L 665 693 L 659 705 L 654 720 L 652 723 L 650 729 L 650 732 L 649 733 L 649 736 L 648 737 L 648 740 L 647 741 L 647 744 L 646 745 L 645 754 L 644 755 L 644 760 L 643 761 L 643 767 L 642 768 L 642 776 L 641 777 L 641 788 L 640 789 L 640 817 L 639 818 L 639 952 L 639 952 L 631 952 L 631 813 L 630 812 L 630 787 L 629 786 L 629 773 L 628 772 L 628 764 Q 626 762 627 758 L 626 757 L 626 752 L 625 751 L 625 746 L 624 745 L 623 737 L 621 733 L 621 730 L 616 715 L 602 685 L 588 663 L 498 540 L 465 492 L 464 489 L 447 463 L 448 461 L 515 537 L 544 572 L 613 651 L 623 664 L 624 664 L 624 662 L 620 656 L 620 654 L 617 648 L 615 646 L 615 644 L 611 636 L 609 634 L 560 535 L 558 533 L 531 478 L 529 476 L 524 464 L 522 462 L 462 342 L 462 340 L 451 318 L 450 313 L 448 310 L 446 299 L 445 298 L 445 281 L 450 268 Q 456 259 467 255 L 477 253 L 478 252 L 482 252 L 483 251 L 493 251 L 494 250 L 499 250 L 499 243 L 499 242 L 269 242 Z " /><path fill="#1e2a26" stroke="rgb(30,42,38)" stroke-width="0" opacity="1" d="M 268.5 242 L 498.5 242 L 499 242.5 L 499 250 L 493.5 250 L 492.5 251 L 482.5 251 L 481.5 252 L 477.5 252 L 476.5 253 L 466.5 255 Q 456.18 259.18 450 267.5 L 445 280.5 L 445 297.5 L 446 298.5 L 448 309.5 L 450 312.5 L 451 317.5 L 462 339.5 L 462 341.5 L 522 461.5 L 524 463.5 L 529 475.5 L 531 477.5 L 558 532.5 L 560 534.5 L 609 633.5 L 611 635.5 L 615 643.5 L 615 645.5 L 617 647.5 L 620 653.5 L 620 655.5 L 624 661.5 L 624 663.5 L 623 663.5 L 613 650.5 L 544 571.5 L 515 536.5 L 447.5 461 L 447 462.5 L 464 488.5 L 465 491.5 L 498 539.5 L 588 662.5 L 602 684.5 L 616 714.5 L 621 729.5 L 621 732.5 L 623 736.5 L 624 744.5 L 625 745.5 L 625 750.5 L 626 751.5 L 626 756.5 L 627 757.5 Q 625.75 762.25 628 763.5 L 628 771.5 L 629 772.5 L 629 785.5 L 630 786.5 L 630 811.5 L 631 812.5 L 631 952 L 638.5 952 L 639 951.5 L 639 817.5 L 640 816.5 L 640 788.5 L 641 787.5 L 641 776.5 L 642 775.5 L 642 767.5 L 643 766.5 L 643 760.5 L 644 759.5 L 644 754.5 L 645 753.5 L 646 744.5 L 647 743.5 L 647 740.5 L 648 739.5 L 648 736.5 L 649 735.5 L 649 732.5 L 650 731.5 L 650 728.5 L 652 722.5 L 654 719.5 L 659 704.5 L 665 692.5 L 683 663.5 L 751 574.5 L 791 518.5 L 820 473.5 L 827 460.5 L 826.5 460 L 821 465.5 L 760 535.5 L 715 589.5 L 650.5 663 L 650 661.5 L 656 651.5 L 679 605.5 L 681 603.5 L 689 586.5 L 691 584.5 L 700 565.5 L 702 563.5 L 712 542.5 L 714 540.5 L 754 461.5 L 756 459.5 L 822 327.5 L 822 325.5 L 827 315.5 L 830 306.5 L 830 303.5 L 831 302.5 Q 830 298.5 832 297.5 L 832 279.5 L 828 269.5 L 820.5 261 L 806.5 254 L 803.5 254 L 798.5 252 L 794.5 252 L 793.5 251 L 783.5 251 L 782.5 250 L 777 250 L 777 243.5 L 778.5 242 L 1004.5 242 L 1005 242.5 L 1005 250 Q 1001.63 249 1000.5 251 L 992.5 251 L 991.5 252 L 982.5 253 L 967.5 258 Q 949.61 266.11 938 280.5 L 927 296.5 L 914 321.5 L 914 323.5 L 882 386.5 L 882 388.5 L 880 390.5 L 880 392.5 L 878 394.5 L 878 396.5 L 875 400.5 L 875 402.5 L 851 449.5 L 851 451.5 L 831 490.5 L 831 492.5 L 763 629.5 L 763 631.5 L 722 714.5 L 722 716.5 L 713 733.5 L 713 735.5 L 699 764.5 L 699 766.5 L 692 781.5 L 691 786.5 L 689 789.5 L 685 801.5 L 685 804.5 L 680 818.5 L 680 821.5 L 678 826.5 L 678 830.5 L 676 835.5 L 676 839.5 L 675 840.5 L 675 845.5 L 674 846.5 Q 675.25 851.25 673 852.5 L 673 859.5 L 672 860.5 L 672 869.5 L 671 870.5 L 671 911.5 L 672 912.5 L 672 918.5 L 673 919.5 L 673 923.5 L 675 929.5 Q 678.61 937.89 685.5 943 L 699.5 950 L 702.5 950 L 707.5 952 L 713.5 952 L 714.5 953 L 722.5 953 L 724 954.5 L 724 963.5 L 723.5 964 L 546 964 L 546 954.5 L 547.5 953 L 562.5 952 L 563.5 951 L 567.5 951 L 573.5 949 L 584.5 943 L 590 937.5 L 594 930.5 L 596 924.5 L 596 921.5 L 597 920.5 L 597 914.5 L 598 913.5 L 598 899.5 L 599 898.5 L 599 881.5 L 598 880.5 L 598 865.5 L 597 864.5 L 597 856.5 L 596 855.5 L 595 841.5 L 594 840.5 L 594 836.5 L 593 835.5 L 593 831.5 L 591 826.5 L 591 822.5 L 590 821.5 L 589 814.5 L 587 810.5 L 587 807.5 L 579 783.5 L 577 780.5 L 576 775.5 L 569 760.5 L 569 758.5 L 562 744.5 L 562 742.5 L 548 714.5 L 548 712.5 L 542 701.5 L 542 699.5 L 532 680.5 L 532 678.5 L 522 659.5 L 522 657.5 L 510 634.5 L 510 632.5 L 498 609.5 L 498 607.5 L 486 584.5 L 486 582.5 L 441 491.5 L 441 489.5 L 432 472.5 L 432 470.5 L 424 455.5 L 424 453.5 L 418 443.5 L 418 441.5 L 408 422.5 L 408 420.5 L 390 385.5 L 390 383.5 L 388 381.5 L 388 379.5 L 377 358.5 L 377 356.5 L 375 354.5 L 373 348.5 L 347 296.5 L 335 279.5 L 325.5 270 L 312.5 261 L 303.5 257 L 298.5 256 L 295.5 254 L 287.5 253 L 286.5 252 L 281.5 252 L 280.5 251 L 271.5 251 Q 270.37 249 267 250 L 267 243.5 L 268.5 242 Z " /><path fill="#1e2a26" d="M367 421 L373 421 L376 724 L364 724 Z" /></svg>